<?xml version="1.0" encoding="UTF-8"?>
<svg id="Ebene_1" data-name="Ebene 1" xmlns="http://www.w3.org/2000/svg" viewBox="0 0 1000 250">
  <defs>
    <style>
      .cls-1 {
        fill: none;
        stroke: #000;
        stroke-miterlimit: 10;
        stroke-width: 7px;
      }
    </style>
  </defs>
  <g>
    <path d="m43.14,96.44c-4.22,0-8.16-.88-11.83-2.65-3.67-1.77-6.67-4.32-8.98-7.65l5.92-6.94c1.97,2.72,4.2,4.81,6.68,6.27,2.48,1.46,5.22,2.19,8.21,2.19,8.16,0,12.24-4.83,12.24-14.48v-40.09h-25.81v-8.87h35.9v48.45c0,7.96-1.89,13.91-5.66,17.85-3.77,3.95-9.33,5.92-16.68,5.92Z"/>
    <path d="m105.12,96.23c-5.37,0-10.18-1.19-14.43-3.57-4.25-2.38-7.6-5.66-10.05-9.84-2.45-4.18-3.67-8.92-3.67-14.23s1.22-10.11,3.67-14.23c2.45-4.11,5.78-7.36,10-9.74,4.21-2.38,9.04-3.57,14.48-3.57s10.18,1.17,14.43,3.52,7.58,5.59,10,9.74c2.41,4.15,3.62,8.91,3.62,14.28s-1.21,10.13-3.62,14.28c-2.41,4.15-5.75,7.41-10,9.79-4.25,2.38-9.06,3.57-14.43,3.57Zm0-8.57c3.47,0,6.58-.78,9.33-2.35s4.91-3.79,6.48-6.68c1.56-2.89,2.35-6.24,2.35-10.05s-.78-7.22-2.35-10.05c-1.56-2.82-3.72-5.01-6.48-6.58-2.75-1.56-5.87-2.35-9.33-2.35s-6.56.78-9.28,2.35c-2.72,1.57-4.9,3.76-6.53,6.58-1.63,2.82-2.45,6.17-2.45,10.05s.82,7.16,2.45,10.05c1.63,2.89,3.81,5.12,6.53,6.68,2.72,1.56,5.81,2.35,9.28,2.35Z"/>
    <path d="m172.61,41.05c4.42,0,8.31.85,11.68,2.55,3.37,1.7,6,4.28,7.91,7.75,1.9,3.47,2.86,7.85,2.86,13.16v31.11h-9.79v-29.99c0-5.24-1.27-9.18-3.83-11.83-2.55-2.65-6.14-3.98-10.76-3.98-3.47,0-6.5.68-9.08,2.04-2.58,1.36-4.57,3.37-5.97,6.02-1.39,2.65-2.09,5.95-2.09,9.89v27.85h-9.79V19.94h9.79v36.21l-1.94-3.88c1.77-3.54,4.49-6.29,8.16-8.26,3.67-1.97,7.96-2.96,12.85-2.96Z"/>
    <path d="m224.59,96.23c-4.01,0-7.53-.68-10.56-2.04-3.03-1.36-5.36-3.25-6.99-5.66s-2.45-5.15-2.45-8.21.7-5.58,2.09-7.96c1.39-2.38,3.67-4.28,6.83-5.71,3.16-1.43,7.43-2.14,12.8-2.14h17.14v7.04h-16.73c-4.9,0-8.2.82-9.89,2.45-1.7,1.63-2.55,3.6-2.55,5.92,0,2.65,1.05,4.78,3.16,6.38,2.11,1.6,5.03,2.4,8.77,2.4s6.88-.82,9.64-2.45c2.75-1.63,4.74-4.01,5.97-7.14l1.94,6.73c-1.29,3.2-3.57,5.73-6.83,7.6-3.26,1.87-7.38,2.8-12.34,2.8Zm17.75-.61v-11.42l-.51-2.14v-19.48c0-4.15-1.21-7.36-3.62-9.64-2.41-2.28-6.04-3.42-10.86-3.42-3.2,0-6.32.53-9.38,1.58-3.06,1.06-5.65,2.47-7.75,4.23l-4.08-7.34c2.79-2.24,6.14-3.96,10.05-5.15,3.91-1.19,8.01-1.78,12.29-1.78,7.41,0,13.12,1.8,17.14,5.41,4.01,3.61,6.02,9.11,6.02,16.52v32.64h-9.28Z"/>
    <path d="m294.09,41.05c4.42,0,8.31.85,11.68,2.55,3.37,1.7,6,4.28,7.9,7.75,1.9,3.47,2.86,7.85,2.86,13.16v31.11h-9.79v-29.99c0-5.24-1.28-9.18-3.83-11.83-2.55-2.65-6.14-3.98-10.76-3.98-3.47,0-6.5.68-9.08,2.04-2.59,1.36-4.57,3.37-5.97,6.02-1.39,2.65-2.09,5.95-2.09,9.89v27.85h-9.79v-54.06h9.38v14.59l-1.53-3.88c1.77-3.54,4.49-6.29,8.16-8.26,3.67-1.97,7.96-2.96,12.85-2.96Z"/>
    <path d="m356.82,41.05c4.42,0,8.31.85,11.68,2.55,3.37,1.7,6,4.28,7.91,7.75,1.9,3.47,2.86,7.85,2.86,13.16v31.11h-9.79v-29.99c0-5.24-1.27-9.18-3.83-11.83-2.55-2.65-6.14-3.98-10.76-3.98-3.47,0-6.5.68-9.08,2.04-2.58,1.36-4.57,3.37-5.97,6.02-1.39,2.65-2.09,5.95-2.09,9.89v27.85h-9.79v-54.06h9.38v14.59l-1.53-3.88c1.77-3.54,4.49-6.29,8.16-8.26,3.67-1.97,7.96-2.96,12.85-2.96Z"/>
    <path d="m418.36,96.23c-5.78,0-10.86-1.19-15.25-3.57-4.39-2.38-7.79-5.64-10.2-9.79-2.42-4.15-3.62-8.91-3.62-14.28s1.17-10.13,3.52-14.28c2.35-4.15,5.58-7.4,9.69-9.74,4.11-2.35,8.75-3.52,13.92-3.52s9.86,1.16,13.87,3.47c4.01,2.31,7.16,5.56,9.43,9.74,2.28,4.18,3.42,9.06,3.42,14.64,0,.41-.02.88-.05,1.43-.04.54-.09,1.05-.15,1.53h-46v-7.04h40.9l-3.98,2.45c.07-3.47-.65-6.56-2.14-9.28-1.5-2.72-3.55-4.84-6.17-6.38-2.62-1.53-5.66-2.29-9.13-2.29s-6.43.76-9.08,2.29c-2.65,1.53-4.73,3.67-6.22,6.43-1.5,2.75-2.24,5.9-2.24,9.43v1.63c0,3.61.83,6.82,2.5,9.64,1.67,2.82,3.99,5.02,6.99,6.58,2.99,1.56,6.43,2.35,10.3,2.35,3.2,0,6.1-.54,8.72-1.63,2.62-1.09,4.91-2.72,6.89-4.9l5.41,6.32c-2.45,2.86-5.49,5.03-9.13,6.53-3.64,1.5-7.7,2.24-12.19,2.24Z"/>
    <path d="m470.54,96.23c-4.49,0-8.76-.61-12.8-1.84-4.05-1.22-7.23-2.72-9.54-4.49l4.08-7.75c2.31,1.56,5.17,2.89,8.57,3.98,3.4,1.09,6.87,1.63,10.4,1.63,4.55,0,7.84-.65,9.84-1.94,2.01-1.29,3.01-3.09,3.01-5.41,0-1.7-.61-3.03-1.84-3.98-1.22-.95-2.84-1.67-4.85-2.14-2.01-.48-4.23-.9-6.68-1.27-2.45-.37-4.9-.85-7.34-1.43-2.45-.58-4.69-1.39-6.73-2.45-2.04-1.05-3.67-2.51-4.9-4.39-1.22-1.87-1.84-4.37-1.84-7.5s.92-6.12,2.75-8.57c1.84-2.45,4.44-4.33,7.8-5.66,3.37-1.33,7.36-1.99,11.99-1.99,3.53,0,7.12.42,10.76,1.27,3.64.85,6.61,2.06,8.93,3.62l-4.18,7.75c-2.45-1.63-5-2.75-7.65-3.37-2.65-.61-5.3-.92-7.96-.92-4.28,0-7.48.7-9.59,2.09-2.11,1.39-3.16,3.18-3.16,5.36,0,1.84.63,3.25,1.89,4.23,1.26.99,2.89,1.75,4.9,2.29,2.01.54,4.23,1,6.68,1.38,2.45.37,4.9.85,7.34,1.43,2.45.58,4.67,1.38,6.68,2.4,2,1.02,3.64,2.45,4.9,4.28s1.89,4.29,1.89,7.34c0,3.26-.95,6.09-2.86,8.47-1.9,2.38-4.59,4.23-8.06,5.56s-7.62,1.99-12.44,1.99Z"/>
    <path d="m536.84,95.62V24.22h10.2v71.4h-10.2Z"/>
    <path d="m555.63,49.62v-8.06h34.48v8.06h-34.48Zm26.32,46.61c-5.44,0-9.66-1.46-12.65-4.39-2.99-2.92-4.49-7.11-4.49-12.55V29.73h9.79v49.16c0,2.92.73,5.17,2.19,6.73,1.46,1.57,3.55,2.35,6.27,2.35,3.06,0,5.61-.85,7.65-2.55l3.06,7.04c-1.5,1.29-3.28,2.24-5.35,2.86-2.08.61-4.23.92-6.48.92Z"/>
    <path d="m597.51,49.62v-8.06h34.48v8.06h-34.48Zm26.32,46.61c-5.44,0-9.66-1.46-12.65-4.39-2.99-2.92-4.49-7.11-4.49-12.55V29.73h9.79v49.16c0,2.92.73,5.17,2.19,6.73,1.46,1.57,3.55,2.35,6.27,2.35,3.06,0,5.61-.85,7.65-2.55l3.06,7.04c-1.5,1.29-3.28,2.24-5.36,2.86s-4.23.92-6.48.92Z"/>
    <path d="m666.29,96.23c-5.78,0-10.86-1.19-15.25-3.57-4.39-2.38-7.79-5.64-10.2-9.79-2.41-4.15-3.62-8.91-3.62-14.28s1.17-10.13,3.52-14.28c2.35-4.15,5.57-7.4,9.69-9.74,4.11-2.35,8.75-3.52,13.92-3.52s9.86,1.16,13.87,3.47c4.01,2.31,7.16,5.56,9.44,9.74,2.28,4.18,3.42,9.06,3.42,14.64,0,.41-.02.88-.05,1.43-.04.54-.09,1.05-.15,1.53h-46v-7.04h40.9l-3.98,2.45c.07-3.47-.65-6.56-2.14-9.28-1.5-2.72-3.55-4.84-6.17-6.38-2.62-1.53-5.66-2.29-9.13-2.29s-6.43.76-9.08,2.29-4.73,3.67-6.22,6.43c-1.5,2.75-2.24,5.9-2.24,9.43v1.63c0,3.61.83,6.82,2.5,9.64,1.67,2.82,3.99,5.02,6.99,6.58,2.99,1.56,6.43,2.35,10.3,2.35,3.2,0,6.1-.54,8.72-1.63,2.62-1.09,4.91-2.72,6.88-4.9l5.41,6.32c-2.45,2.86-5.49,5.03-9.13,6.53-3.64,1.5-7.7,2.24-12.19,2.24Z"/>
    <path d="m729.89,41.05c4.42,0,8.31.85,11.68,2.55,3.37,1.7,6,4.28,7.91,7.75,1.9,3.47,2.86,7.85,2.86,13.16v31.11h-9.79v-29.99c0-5.24-1.27-9.18-3.82-11.83-2.55-2.65-6.14-3.98-10.76-3.98-3.47,0-6.49.68-9.08,2.04-2.58,1.36-4.57,3.37-5.97,6.02-1.39,2.65-2.09,5.95-2.09,9.89v27.85h-9.79v-54.06h9.38v14.59l-1.53-3.88c1.77-3.54,4.49-6.29,8.16-8.26,3.67-1.97,7.96-2.96,12.85-2.96Z"/>
    <path d="m33.96,218.02v-71.4h10.2v62.53h38.66v8.87h-48.86Z"/>
    <path d="m96.12,153.56c-1.91,0-3.49-.61-4.74-1.84-1.26-1.22-1.89-2.72-1.89-4.49s.63-3.37,1.89-4.59c1.26-1.22,2.84-1.84,4.74-1.84s3.48.6,4.74,1.78c1.26,1.19,1.89,2.67,1.89,4.44s-.61,3.38-1.84,4.64c-1.22,1.26-2.82,1.89-4.79,1.89Zm-4.9,64.46v-54.06h9.79v54.06h-9.79Z"/>
    <path d="m141.61,163.45c4.42,0,8.31.85,11.68,2.55,3.37,1.7,6,4.28,7.9,7.75,1.9,3.47,2.86,7.85,2.86,13.16v31.11h-9.79v-29.99c0-5.24-1.28-9.18-3.83-11.83s-6.14-3.98-10.76-3.98c-3.47,0-6.5.68-9.08,2.04-2.59,1.36-4.57,3.37-5.97,6.02-1.39,2.65-2.09,5.95-2.09,9.89v27.85h-9.79v-54.06h9.38v14.59l-1.53-3.88c1.77-3.54,4.49-6.29,8.16-8.26s7.96-2.96,12.85-2.96Z"/>
    <path d="m177.54,218.02v-75.68h9.79v75.68h-9.79Zm7.96-13.06l.2-12.54,31.11-28.46h11.83l-23.87,23.46-5.3,4.49-13.97,13.05Zm33.35,13.06l-21.22-26.32,6.32-7.85,26.93,34.17h-12.04Z"/>
    <path d="m259.53,218.63c-5.78,0-10.86-1.19-15.25-3.57-4.38-2.38-7.79-5.64-10.2-9.79-2.42-4.15-3.62-8.91-3.62-14.28s1.17-10.13,3.52-14.28c2.35-4.15,5.57-7.39,9.69-9.74,4.11-2.35,8.75-3.52,13.92-3.52s9.86,1.16,13.87,3.47c4.01,2.31,7.16,5.56,9.44,9.74,2.28,4.18,3.42,9.06,3.42,14.64,0,.41-.02.88-.05,1.43-.04.54-.09,1.06-.15,1.53h-46v-7.04h40.9l-3.98,2.45c.07-3.47-.65-6.56-2.14-9.28-1.5-2.72-3.55-4.84-6.17-6.38-2.62-1.53-5.66-2.29-9.13-2.29s-6.43.77-9.08,2.29c-2.65,1.53-4.73,3.67-6.22,6.43-1.5,2.75-2.24,5.9-2.24,9.43v1.63c0,3.6.83,6.82,2.5,9.64,1.67,2.82,3.99,5.02,6.99,6.58,2.99,1.57,6.43,2.35,10.3,2.35,3.2,0,6.1-.54,8.72-1.63,2.62-1.09,4.91-2.72,6.89-4.9l5.41,6.32c-2.45,2.86-5.49,5.03-9.13,6.53-3.64,1.5-7.7,2.24-12.19,2.24Z"/>
    <path d="m319.04,218.63c-5.24,0-9.91-1.15-14.02-3.47-4.12-2.31-7.36-5.54-9.74-9.69-2.38-4.15-3.57-8.98-3.57-14.48s1.19-10.32,3.57-14.43c2.38-4.11,5.63-7.33,9.74-9.64,4.11-2.31,8.79-3.47,14.02-3.47,4.55,0,8.67,1.02,12.34,3.06,3.67,2.04,6.61,5.1,8.82,9.18,2.21,4.08,3.31,9.18,3.31,15.3s-1.07,11.22-3.21,15.3c-2.14,4.08-5.05,7.16-8.72,9.23-3.67,2.08-7.85,3.11-12.55,3.11Zm.82-8.57c3.4,0,6.48-.78,9.23-2.35,2.75-1.56,4.93-3.79,6.53-6.68,1.6-2.89,2.4-6.24,2.4-10.05s-.8-7.22-2.4-10.05c-1.6-2.82-3.77-5.01-6.53-6.58-2.75-1.56-5.83-2.35-9.23-2.35s-6.56.78-9.28,2.35c-2.72,1.57-4.9,3.76-6.53,6.58-1.63,2.82-2.45,6.17-2.45,10.05s.82,7.16,2.45,10.05c1.63,2.89,3.81,5.12,6.53,6.68,2.72,1.57,5.81,2.35,9.28,2.35Zm18.46,7.96v-14.59l.61-12.55-1.02-12.55v-36.01h9.79v75.68h-9.38Z"/>
    <path d="m386.15,218.02l32.33-71.4h10.1l32.44,71.4h-10.71l-28.87-65.69h4.08l-28.87,65.69h-10.51Zm13.77-17.85l2.75-8.16h40.19l2.96,8.16h-45.9Z"/>
    <path d="m468.3,218.02v-54.06h9.38v14.69l-.92-3.67c1.5-3.74,4.01-6.59,7.55-8.57,3.54-1.97,7.89-2.96,13.06-2.96v9.49c-.41-.07-.8-.1-1.17-.1h-1.07c-5.24,0-9.38,1.56-12.44,4.69-3.06,3.13-4.59,7.65-4.59,13.57v26.93h-9.79Z"/>
    <path d="m526.83,218.63c-5.51,0-10.42-1.19-14.74-3.57-4.32-2.38-7.7-5.64-10.15-9.79-2.45-4.15-3.67-8.91-3.67-14.28s1.22-10.13,3.67-14.28c2.45-4.15,5.83-7.39,10.15-9.74,4.32-2.35,9.23-3.52,14.74-3.52,4.9,0,9.26.97,13.11,2.91s6.82,4.81,8.93,8.62l-7.45,4.79c-1.77-2.65-3.93-4.61-6.48-5.87-2.55-1.26-5.29-1.89-8.21-1.89-3.54,0-6.7.78-9.49,2.35-2.79,1.57-5,3.76-6.63,6.58-1.63,2.82-2.45,6.17-2.45,10.05s.82,7.24,2.45,10.1c1.63,2.86,3.84,5.07,6.63,6.63,2.79,1.57,5.95,2.35,9.49,2.35,2.92,0,5.66-.63,8.21-1.89,2.55-1.26,4.71-3.21,6.48-5.87l7.45,4.69c-2.11,3.74-5.08,6.61-8.93,8.62s-8.21,3.01-13.11,3.01Z"/>
    <path d="m585.94,163.45c4.42,0,8.31.85,11.68,2.55,3.37,1.7,6,4.28,7.9,7.75,1.9,3.47,2.86,7.85,2.86,13.16v31.11h-9.79v-29.99c0-5.24-1.28-9.18-3.83-11.83s-6.14-3.98-10.76-3.98c-3.47,0-6.5.68-9.08,2.04-2.59,1.36-4.57,3.37-5.97,6.02-1.39,2.65-2.09,5.95-2.09,9.89v27.85h-9.79v-75.68h9.79v36.21l-1.94-3.88c1.77-3.54,4.49-6.29,8.16-8.26s7.96-2.96,12.85-2.96Z"/>
    <path d="m626.53,153.56c-1.9,0-3.49-.61-4.74-1.84-1.26-1.22-1.89-2.72-1.89-4.49s.63-3.37,1.89-4.59c1.26-1.22,2.84-1.84,4.74-1.84s3.48.6,4.74,1.78c1.26,1.19,1.89,2.67,1.89,4.44s-.61,3.38-1.84,4.64c-1.22,1.26-2.82,1.89-4.79,1.89Zm-4.9,64.46v-54.06h9.79v54.06h-9.79Z"/>
    <path d="m662.3,218.02l-23.66-54.06h10.2l21.01,48.96h-4.9l21.42-48.96h9.59l-23.66,54.06h-10Z"/>
    <path d="m726.41,218.63c-5.78,0-10.86-1.19-15.25-3.57-4.39-2.38-7.79-5.64-10.2-9.79-2.41-4.15-3.62-8.91-3.62-14.28s1.17-10.13,3.52-14.28c2.35-4.15,5.57-7.39,9.69-9.74,4.11-2.35,8.75-3.52,13.92-3.52s9.86,1.16,13.87,3.47c4.01,2.31,7.16,5.56,9.44,9.74,2.28,4.18,3.42,9.06,3.42,14.64,0,.41-.02.88-.05,1.43-.04.54-.09,1.06-.15,1.53h-46v-7.04h40.9l-3.98,2.45c.07-3.47-.65-6.56-2.14-9.28-1.5-2.72-3.55-4.84-6.17-6.38-2.62-1.53-5.66-2.29-9.13-2.29s-6.43.77-9.08,2.29c-2.65,1.53-4.73,3.67-6.22,6.43-1.5,2.75-2.24,5.9-2.24,9.43v1.63c0,3.6.83,6.82,2.5,9.64,1.67,2.82,3.99,5.02,6.99,6.58,2.99,1.57,6.43,2.35,10.3,2.35,3.2,0,6.1-.54,8.72-1.63,2.62-1.09,4.91-2.72,6.88-4.9l5.41,6.32c-2.45,2.86-5.49,5.03-9.13,6.53-3.64,1.5-7.7,2.24-12.19,2.24Z"/>
  </g>
  <circle cx="822.49" cy="209.78" r="30.19"/>
  <circle cx="817.12" cy="41.29" r="30.19"/>
  <line class="cls-1" x1="909.65" y1="91.65" x2="817.35" y2="40.97"/>
  <line class="cls-1" x1="821.91" y1="209.96" x2="909.65" y2="91.65"/>
  <circle cx="909.41" cy="91.37" r="43.19"/>
  <g>
    <path d="m886.62,217.19c-1.98,0-3.82-.41-5.55-1.24-1.72-.83-3.12-2.02-4.21-3.59l2.77-3.25c.92,1.27,1.97,2.25,3.13,2.94,1.16.69,2.45,1.03,3.85,1.03,3.82,0,5.74-2.26,5.74-6.79v-18.79h-12.09v-4.16h16.83v22.71c0,3.73-.88,6.52-2.65,8.37-1.77,1.85-4.38,2.77-7.82,2.77Z"/>
    <path d="m904.3,216.81v-33.46h4.78v33.46h-4.78Z"/>
    <path d="m917.4,216.81v-33.46h4.78v29.31h18.12v4.16h-22.9Z"/>
    <path d="m942.16,216.81l15.15-33.46h4.73l15.2,33.46h-5.02l-13.53-30.79h1.91l-13.53,30.79h-4.92Zm6.45-8.37l1.29-3.82h18.83l1.39,3.82h-21.51Z"/>
  </g>
</svg>